<svg width="102" height="32" viewBox="0 0 102 32" fill="none" xmlns="http://www.w3.org/2000/svg">
<path d="M48.779 15.4601H48.7764C48.1679 15.1697 47.3919 15.0213 46.4693 15.0213H43.8443C43.1449 15.0213 42.5856 14.8278 42.186 14.4549L42.1665 14.4355C41.7759 14.0265 41.5878 13.5658 41.5878 13.0277C41.5878 12.4896 41.7824 11.9928 42.1665 11.5902C42.5532 11.1812 43.0839 10.9747 43.7379 10.9747H50.1973V9.57983H43.4978C42.7699 9.57983 42.1445 9.74758 41.5852 10.0895C41.0259 10.4147 40.6029 10.8341 40.2941 11.3683C39.9853 11.9038 39.8322 12.4703 39.8322 13.1051C39.8322 13.8497 39.9918 14.4807 40.3097 14.9839C40.6509 15.4962 41.1038 15.8794 41.6916 16.1594C42.3028 16.4175 43.0281 16.5491 43.8443 16.5491H46.6056C47.0701 16.5491 47.484 16.6549 47.8344 16.8653C48.1925 17.055 48.4585 17.3259 48.635 17.6705C48.8076 17.9931 48.888 18.3208 48.888 18.7053C48.888 19.0899 48.7933 19.4757 48.6052 19.8267C48.417 20.1815 48.1276 20.477 47.75 20.7093C47.3958 20.9183 46.9624 21.0216 46.4719 21.0216H40.2565V22.4139H46.7678C47.5476 22.4139 48.2055 22.2397 48.7803 21.8822C49.3785 21.5209 49.8275 21.0706 50.1558 20.4964C50.488 19.9067 50.6463 19.295 50.6463 18.624C50.6463 17.8447 50.4802 17.1775 50.1584 16.6485C49.856 16.1272 49.4032 15.7362 48.779 15.4601Z" fill="#F5F5F5"/>
<path d="M64.2009 10.1695V10.1657C63.1927 9.56436 62.0093 9.25854 60.6858 9.25854C59.3622 9.25854 58.1814 9.56436 57.1667 10.167C56.1546 10.7502 55.3423 11.5657 54.7506 12.5903C54.1589 13.5929 53.8591 14.74 53.8591 15.9969C53.8591 17.2537 54.1589 18.4137 54.7506 19.4318C55.3423 20.437 56.1559 21.2525 57.1667 21.8551C58.1321 22.4165 59.261 22.712 60.5171 22.7352H60.6858C62.0093 22.7378 63.1901 22.4448 64.2009 21.859C65.2325 21.2564 66.0448 20.4409 66.6209 19.4396C67.2126 18.4176 67.5124 17.2614 67.5124 16.002C67.5124 14.7426 67.2126 13.5658 66.6209 12.5632C66.0448 11.5606 65.2325 10.7554 64.2009 10.1695ZM65.7256 16.0033V16.0007C65.7256 16.993 65.5141 17.9053 65.095 18.7144C64.6758 19.5105 64.0841 20.1519 63.3393 20.6254C62.5971 21.0964 61.6771 21.3442 60.6819 21.3442C59.6866 21.3442 58.7952 21.1029 58.0244 20.6254C57.2796 20.1519 56.6879 19.508 56.2649 18.7118C55.8483 17.9066 55.6342 16.9943 55.6342 16.002C55.6342 15.0097 55.8457 14.1078 56.2649 13.3181C56.684 12.5025 57.2796 11.8483 58.0283 11.3748C58.7952 10.8973 59.6905 10.6599 60.6819 10.6599C61.6732 10.6599 62.5841 10.9012 63.3393 11.3786C64.088 11.8561 64.6797 12.5064 65.0989 13.3155C65.5154 14.1078 65.7295 15.0097 65.7295 16.0033H65.7256Z" fill="#F5F5F5"/>
<path d="M80.5348 9.98223L80.5322 9.98611H80.5335C79.6421 9.50738 78.5923 9.26221 77.4076 9.26221C76.2229 9.26221 75.1862 9.50738 74.2753 9.99385C73.3618 10.461 72.6624 11.1061 72.1381 11.9565C71.6373 12.8004 71.3829 13.803 71.3829 14.9373V22.4188H73.1399V14.9631C73.1399 14.0869 73.3384 13.3166 73.729 12.6778C74.1325 12.0275 74.6658 11.5216 75.3133 11.1694C75.9699 10.8248 76.6732 10.6506 77.4076 10.6506C78.1421 10.6506 78.8389 10.8248 79.476 11.1694C80.1365 11.5178 80.6698 12.0236 81.063 12.6804C81.4691 13.3178 81.6741 14.0817 81.6741 14.9579V22.4137H83.4337V14.9321C83.4337 13.8017 83.1702 12.7952 82.6525 11.9513C82.1451 11.0971 81.4522 10.4558 80.5348 9.98223Z" fill="#F5F5F5"/>
<path d="M89.8346 9.57861H88.0518V22.4165H89.8346V9.57861Z" fill="#F5F5F5"/>
<path d="M100.623 10.9735H101.957V9.57861H100.705C99.3617 9.57861 98.1445 9.86895 97.0974 10.4393C96.0502 11.0071 95.2107 11.789 94.5995 12.7594C93.9948 13.7065 93.6886 14.7956 93.6886 15.9982C93.6886 17.2008 93.9948 18.2951 94.5995 19.2628C95.2081 20.2164 96.0502 20.9868 97.0974 21.5571C98.0148 22.0526 99.8106 22.4178 100.614 22.4178H101.957V21.0229H100.623C99.6536 21.0229 98.7622 20.801 97.9758 20.3622C97.2141 19.908 96.5939 19.2925 96.1346 18.5351C95.696 17.7751 95.4715 16.9208 95.4715 15.9956C95.4715 15.0704 95.696 14.2136 96.1384 13.4536C96.5939 12.7 97.2154 12.0935 97.9797 11.6587C98.7635 11.2058 99.6497 10.9735 100.623 10.9735Z" fill="#F5F5F5"/>
<path d="M97.9793 11.6607V11.6584L97.9785 11.6592L97.9793 11.6607Z" fill="#F5F5F5"/>
<path d="M19.3522 19.8809L19.3564 19.8782C19.3564 19.8782 19.3522 19.8809 19.3495 19.8823C19.3509 19.8823 19.3522 19.8823 19.3536 19.8823L19.3522 19.8809Z" fill="#F5F5F5"/>
<path d="M19.3498 19.8818C13.2758 21.6961 8.25278 24.3426 5.10613 27.4421L4.96729 27.5802C5.80423 28.3673 6.72163 29.0719 7.71299 29.6706L7.92579 29.4112C8.7848 28.3673 9.70608 27.3595 10.665 26.4098C13.2381 23.86 16.1811 21.6535 19.3498 19.8818Z" fill="#F5F5F5"/>
<path d="M20.0517 17.1929H0C0.242649 20.4278 1.45071 23.3944 3.34648 25.8074L3.43342 25.7209C5.38111 23.8099 7.9166 22.0731 10.975 20.5594C13.6558 19.2317 16.7337 18.0923 20.0517 17.1929Z" fill="#F5F5F5"/>
<path d="M12.3647 3.89692C17.8003 9.28293 24.6412 12.8444 32.1452 14.1954C31.2408 6.21056 24.4063 0 16.1018 0C13.9088 0 11.8184 0.434855 9.90967 1.2194C10.6843 2.14718 11.5122 3.05044 12.3647 3.89821V3.89692Z" fill="#F5F5F5"/>
<path d="M5.10593 4.55628C8.25258 7.66091 13.2781 10.3036 19.3535 12.1217C16.1822 10.3462 13.2366 8.14093 10.6622 5.58987C9.70588 4.64274 8.78589 3.63496 7.923 2.58847L7.71019 2.3291C6.71883 2.92783 5.80144 3.63109 4.96838 4.41821L5.10723 4.55628H5.10593Z" fill="#F5F5F5"/>
<path d="M12.3647 28.1018C11.5083 28.9496 10.6817 29.8528 9.90967 30.7806C11.8158 31.5652 13.9088 32 16.1018 32C24.4063 32 31.2407 25.7882 32.1478 17.8008C24.6451 19.1518 17.8042 22.7132 12.3673 28.0992L12.3647 28.1018Z" fill="#F5F5F5"/>
<path d="M10.9711 11.4355V11.4381C7.9153 9.92445 5.38111 8.18632 3.43342 6.27786L3.34648 6.19141C1.45071 8.6044 0.242649 11.571 0 14.8059H20.0478C16.7311 13.9065 13.6558 12.7671 10.9711 11.4355Z" fill="#F5F5F5"/>
</svg>
