<svg width="105" height="105" viewBox="0 0 105 105" fill="none" xmlns="http://www.w3.org/2000/svg">
<path d="M61.0578 62.6872L61.0684 62.6802C61.0684 62.6802 61.0578 62.6872 61.0508 62.6907C61.0543 62.6907 61.0578 62.6907 61.0613 62.6907L61.0578 62.6872Z" fill="#F5F5F5"/>
<path d="M61.0506 62.6904C45.1951 67.4528 32.0832 74.4 23.8693 82.5361L23.5068 82.8985C25.6916 84.9647 28.0863 86.8141 30.6742 88.3858L31.2297 87.7049C33.472 84.9647 35.8769 82.3193 38.3801 79.8263C45.0969 73.1332 52.7791 67.3411 61.0506 62.6904Z" fill="#F5F5F5"/>
<path d="M62.8835 55.6313H10.541C11.1744 64.1231 14.3279 71.9103 19.2766 78.2443L19.5036 78.0174C24.5878 73.0009 31.2064 68.4418 39.19 64.4686C46.188 60.9831 54.2224 57.9922 62.8835 55.6313Z" fill="#F5F5F5"/>
<path d="M42.8178 20.7299C57.0068 34.868 74.8641 44.2167 94.4524 47.7631C92.0915 26.8031 74.251 10.5005 52.5729 10.5005C46.8486 10.5005 41.3918 11.642 36.4092 13.7014C38.4313 16.1368 40.5924 18.5078 42.8178 20.7332V20.7299Z" fill="#F5F5F5"/>
<path d="M23.8698 22.4606C32.0838 30.6102 45.2024 37.5472 61.0613 42.3198C52.783 37.659 45.094 31.8702 38.3738 25.1737C35.8774 22.6875 33.4759 20.0421 31.2234 17.2951L30.6679 16.6143C28.0801 18.1859 25.6853 20.0319 23.5107 22.0981L23.8732 22.4606H23.8698Z" fill="#F5F5F5"/>
<path d="M42.8178 84.2671C40.5822 86.4925 38.4246 88.8636 36.4092 91.299C41.385 93.3584 46.8486 94.4999 52.5729 94.4999C74.251 94.4999 92.0915 78.1939 94.4591 57.2271C74.8743 60.7735 57.0169 70.1221 42.8245 84.2603L42.8178 84.2671Z" fill="#F5F5F5"/>
<path d="M39.1798 40.5176V40.5243C31.203 36.5511 24.5878 31.9886 19.5036 26.9789L19.2766 26.752C14.3279 33.086 11.1744 40.8732 10.541 49.3649H62.8734C54.2157 47.0041 46.188 44.0132 39.1798 40.5176Z" fill="#F5F5F5"/>
</svg>
